# xmcd
#
# Track frame offsets:
#	150
#	17151
#	31493
#	43953
#	63710
#	78624
#	86569
#	100639
#	115154
#	139196
#	150404
#	165760
#	179223
#	197708
#	223167
#	238730
#	256800
#	270450
#	282626
#
# Disc length: 3974 seconds
#
# Revision: 1
# Processed by: cddbd v1.5.2PL0 Copyright (c) Steve Scherf et al.
# Submitted via: audiograbber 1.83.01
#
DISCID=140f8413
DTITLE=Golden Earring - Complete Studio Recordings [CD 04) - On The Double [rem
DTITLE=astered 2017]
DYEAR=1969
DGENRE=Rock
TTITLE0=Golden Earrings - Songs On A Devil's Servant
TTITLE1=Golden Earrings - Angelina
TTITLE2=Golden Earrings - Pam Pam Poope Poope Loux
TTITLE3=Golden Earrings - Hurry, Hurry, Hurry
TTITLE4=Golden Earrings - My Baby Ruby
TTITLE5=Golden Earrings - Judy
TTITLE6=Golden Earrings - Goodbye Mama
TTITLE7=Golden Earrings - Murdock 9-6182
TTITLE8=Golden Earrings - Just A Little Bit Of Peace In My Heart
TTITLE9=Golden Earrings - The Sad Story Of Sam Stone
TTITLE10=Golden Earrings - High In The Sky
TTITLE11=Golden Earrings - Remember My Friend
TTITLE12=Golden Earrings - Time Is A Book
TTITLE13=Golden Earrings - Backbiting Baby
TTITLE14=Golden Earrings - I'm A Runnin'
TTITLE15=Golden Earrings - I Sing My Song
TTITLE16=Golden Earrings - Mitch Mover
TTITLE17=Golden Earrings - God Bless The Day
TTITLE18=Golden Earrings - The Grand Piano
EXTD=
EXTT0=
EXTT1=
EXTT2=
EXTT3=
EXTT4=
EXTT5=
EXTT6=
EXTT7=
EXTT8=
EXTT9=
EXTT10=
EXTT11=
EXTT12=
EXTT13=
EXTT14=
EXTT15=
EXTT16=
EXTT17=
EXTT18=
PLAYORDER=
